<svg xmlns="http://www.w3.org/2000/svg" width="375" viewBox="0 0 375 375" height="375" version="1.0"><path d="M 188.492188 283.355469 C 178.289062 283.386719 168.21875 282.234375 158.289062 279.898438 C 148.355469 277.5625 138.828125 274.105469 129.707031 269.535156 C 120.90625 265.113281 112.695312 259.777344 105.078125 253.53125 C 97.460938 247.285156 90.625 240.28125 84.5625 232.515625 L 75.671875 221.097656 L 219.070312 221.097656 C 224.316406 221.136719 229.351562 220.121094 234.175781 218.054688 C 236.484375 217.074219 238.675781 215.878906 240.753906 214.472656 C 242.832031 213.066406 244.757812 211.472656 246.527344 209.695312 C 248.300781 207.917969 249.882812 205.988281 251.28125 203.90625 C 252.679688 201.820312 253.863281 199.621094 254.839844 197.308594 C 256.890625 192.503906 257.902344 187.488281 257.875 182.261719 C 257.863281 177.503906 257.027344 172.898438 255.363281 168.4375 C 253.710938 163.964844 251.289062 159.949219 248.101562 156.398438 L 243.894531 151.707031 L 248.121094 146.988281 C 251.308594 143.4375 253.730469 139.425781 255.386719 134.949219 C 257.046875 130.492188 257.882812 125.882812 257.894531 121.125 C 257.925781 115.898438 256.910156 110.882812 254.859375 106.078125 C 253.882812 103.765625 252.695312 101.570312 251.292969 99.488281 C 249.894531 97.40625 248.308594 95.480469 246.535156 93.703125 C 244.761719 91.929688 242.835938 90.339844 240.757812 88.933594 C 238.679688 87.53125 236.484375 86.339844 234.175781 85.359375 C 229.351562 83.300781 224.316406 82.292969 219.070312 82.335938 L 75.671875 82.335938 L 84.5625 70.921875 C 90.621094 63.152344 97.460938 56.148438 105.078125 49.902344 C 112.695312 43.65625 120.90625 38.324219 129.707031 33.902344 C 131.4375 33.039062 133.1875 32.214844 134.953125 31.425781 C 136.71875 30.640625 138.5 29.890625 140.300781 29.183594 C 142.101562 28.476562 143.914062 27.804688 145.742188 27.179688 C 147.570312 26.550781 149.414062 25.960938 151.269531 25.414062 C 153.125 24.867188 154.988281 24.359375 156.867188 23.894531 C 158.742188 23.429688 160.628906 23.007812 162.523438 22.625 C 164.421875 22.242188 166.324219 21.902344 168.234375 21.605469 C 170.144531 21.308594 172.0625 21.050781 173.984375 20.839844 C 175.90625 20.625 177.832031 20.453125 179.761719 20.324219 C 181.691406 20.195312 183.621094 20.109375 185.554688 20.066406 C 187.488281 20.023438 189.421875 20.023438 191.355469 20.0625 C 193.289062 20.105469 195.21875 20.1875 197.148438 20.316406 C 199.078125 20.441406 201.003906 20.613281 202.925781 20.824219 C 204.847656 21.035156 206.765625 21.289062 208.675781 21.585938 C 210.585938 21.882812 212.492188 22.21875 214.386719 22.597656 C 216.28125 22.980469 218.167969 23.398438 220.046875 23.863281 C 221.925781 24.328125 223.789062 24.832031 225.644531 25.375 C 227.5 25.921875 229.34375 26.507812 231.171875 27.132812 C 233.003906 27.761719 234.816406 28.425781 236.617188 29.132812 C 238.417969 29.839844 240.203125 30.585938 241.96875 31.371094 C 243.734375 32.15625 245.484375 32.980469 247.214844 33.839844 C 248.945312 34.703125 250.65625 35.601562 252.347656 36.542969 C 254.039062 37.480469 255.710938 38.453125 257.359375 39.464844 C 259.007812 40.476562 260.632812 41.523438 262.234375 42.605469 C 263.835938 43.6875 265.414062 44.804688 266.96875 45.957031 C 268.519531 47.109375 270.046875 48.296875 271.546875 49.515625 C 273.046875 50.734375 274.519531 51.988281 275.964844 53.273438 C 277.414062 54.554688 278.828125 55.871094 280.214844 57.21875 C 281.605469 58.566406 282.960938 59.941406 284.289062 61.347656 C 285.613281 62.757812 286.910156 64.191406 288.171875 65.65625 C 289.4375 67.117188 290.667969 68.609375 291.867188 70.128906 C 293.0625 71.644531 294.226562 73.191406 295.355469 74.757812 C 296.488281 76.328125 297.582031 77.921875 298.640625 79.539062 C 299.703125 81.15625 300.726562 82.796875 301.710938 84.460938 C 302.699219 86.121094 303.648438 87.804688 304.5625 89.511719 C 305.476562 91.214844 306.351562 92.9375 307.1875 94.683594 C 308.027344 96.425781 308.824219 98.1875 309.582031 99.964844 C 310.34375 101.742188 311.0625 103.535156 311.742188 105.347656 C 312.425781 107.15625 313.066406 108.980469 313.664062 110.820312 C 314.265625 112.65625 314.824219 114.507812 315.34375 116.371094 C 315.863281 118.234375 316.339844 120.109375 316.773438 121.992188 C 317.210938 123.875 317.605469 125.769531 317.957031 127.667969 C 318.3125 129.570312 318.621094 131.480469 318.890625 133.394531 C 319.160156 135.308594 319.382812 137.230469 319.570312 139.152344 C 319.753906 141.078125 319.894531 143.007812 319.992188 144.9375 C 320.09375 146.871094 320.148438 148.800781 320.164062 150.734375 C 320.175781 152.667969 320.148438 154.601562 320.074219 156.535156 C 320.003906 158.46875 319.890625 160.398438 319.734375 162.324219 C 319.578125 164.253906 319.378906 166.175781 319.136719 168.09375 C 318.898438 170.011719 318.613281 171.925781 318.289062 173.832031 C 317.960938 175.738281 317.59375 177.636719 317.1875 179.527344 C 316.777344 181.414062 316.328125 183.296875 315.835938 185.164062 C 315.34375 187.035156 314.808594 188.894531 314.234375 190.742188 C 313.660156 192.585938 313.046875 194.421875 312.394531 196.242188 C 311.738281 198.058594 311.042969 199.863281 310.308594 201.652344 C 309.574219 203.441406 308.800781 205.214844 307.988281 206.96875 C 307.179688 208.722656 306.328125 210.460938 305.4375 212.175781 C 304.550781 213.894531 303.625 215.59375 302.660156 217.269531 C 301.695312 218.945312 300.695312 220.601562 299.660156 222.234375 C 298.625 223.863281 297.550781 225.472656 296.445312 227.058594 C 295.335938 228.644531 294.195312 230.203125 293.019531 231.738281 C 291.84375 233.273438 290.632812 234.78125 289.390625 236.265625 C 288.148438 237.746094 286.875 239.199219 285.566406 240.625 C 284.261719 242.050781 282.921875 243.445312 281.554688 244.8125 C 278.511719 247.867188 275.324219 250.761719 271.992188 253.5 C 268.664062 256.238281 265.207031 258.804688 261.621094 261.199219 C 258.039062 263.597656 254.347656 265.8125 250.546875 267.847656 C 246.742188 269.878906 242.851562 271.722656 238.867188 273.371094 C 234.886719 275.019531 230.832031 276.46875 226.707031 277.71875 C 222.578125 278.96875 218.402344 280.015625 214.171875 280.851562 C 209.945312 281.691406 205.683594 282.320312 201.394531 282.738281 C 197.101562 283.15625 192.800781 283.363281 188.492188 283.355469 Z M 105.824219 235.238281 C 108.535156 237.9375 111.371094 240.496094 114.332031 242.914062 C 117.296875 245.332031 120.371094 247.601562 123.554688 249.714844 C 126.742188 251.832031 130.023438 253.789062 133.402344 255.582031 C 136.777344 257.375 140.238281 259 143.773438 260.453125 C 147.3125 261.90625 150.914062 263.183594 154.574219 264.285156 C 158.238281 265.382812 161.949219 266.300781 165.699219 267.035156 C 169.453125 267.773438 173.234375 268.320312 177.042969 268.683594 C 180.851562 269.046875 184.664062 269.222656 188.492188 269.210938 C 253.285156 269.210938 305.996094 216.503906 305.996094 151.707031 C 305.996094 86.914062 253.285156 34.203125 188.492188 34.203125 C 184.664062 34.191406 180.851562 34.367188 177.042969 34.730469 C 173.234375 35.09375 169.453125 35.644531 165.699219 36.378906 C 161.949219 37.113281 158.238281 38.03125 154.574219 39.132812 C 150.914062 40.230469 147.3125 41.507812 143.773438 42.960938 C 140.238281 44.414062 136.777344 46.039062 133.402344 47.832031 C 130.023438 49.628906 126.742188 51.582031 123.554688 53.699219 C 120.371094 55.816406 117.296875 58.082031 114.332031 60.503906 C 111.371094 62.921875 108.535156 65.480469 105.824219 68.175781 L 219.070312 68.175781 C 226.269531 68.132812 233.175781 69.527344 239.789062 72.363281 C 242.921875 73.703125 245.894531 75.328125 248.714844 77.242188 C 251.53125 79.152344 254.140625 81.316406 256.542969 83.726562 C 258.945312 86.140625 261.097656 88.761719 262.996094 91.585938 C 264.894531 94.414062 266.507812 97.394531 267.835938 100.53125 C 270.640625 107.109375 272.03125 113.972656 272.007812 121.125 C 272 127.570312 270.871094 133.8125 268.621094 139.855469 C 267.066406 144.078125 264.992188 148.027344 262.398438 151.707031 C 264.996094 155.386719 267.074219 159.335938 268.636719 163.5625 C 270.882812 169.601562 272.011719 175.84375 272.019531 182.289062 C 272.046875 189.441406 270.65625 196.304688 267.847656 202.882812 C 266.519531 206.023438 264.90625 209.003906 263.007812 211.828125 C 261.105469 214.65625 258.957031 217.277344 256.550781 219.691406 C 254.148438 222.101562 251.535156 224.265625 248.71875 226.175781 C 245.898438 228.085938 242.921875 229.710938 239.789062 231.050781 C 233.171875 233.890625 226.261719 235.285156 219.058594 235.238281 Z M 72.632812 204.65625 L 67.847656 204.65625 L 66.054688 200.191406 C 64.535156 196.339844 63.199219 192.425781 62.046875 188.449219 C 60.894531 184.472656 59.933594 180.449219 59.160156 176.382812 C 58.386719 172.316406 57.804688 168.222656 57.417969 164.101562 C 57.027344 159.976562 56.835938 155.847656 56.835938 151.707031 C 56.835938 147.566406 57.027344 143.4375 57.417969 139.316406 C 57.804688 135.195312 58.386719 131.097656 59.160156 127.03125 C 59.933594 122.964844 60.894531 118.945312 62.046875 114.96875 C 63.199219 110.992188 64.535156 107.078125 66.054688 103.226562 L 67.824219 98.757812 L 219.070312 98.757812 C 220.175781 98.757812 221.273438 98.835938 222.367188 98.996094 C 223.460938 99.160156 224.535156 99.398438 225.59375 99.71875 C 226.648438 100.039062 227.675781 100.433594 228.675781 100.90625 C 229.671875 101.378906 230.632812 101.921875 231.550781 102.535156 C 232.464844 103.152344 233.335938 103.828125 234.152344 104.570312 C 234.96875 105.3125 235.726562 106.113281 236.425781 106.96875 C 237.125 107.824219 237.757812 108.726562 238.324219 109.671875 C 238.886719 110.621094 239.382812 111.605469 239.800781 112.628906 C 240.21875 113.648438 240.5625 114.695312 240.828125 115.769531 C 241.089844 116.839844 241.273438 117.925781 241.378906 119.027344 C 241.484375 120.125 241.503906 121.226562 241.445312 122.328125 C 241.386719 123.433594 241.246094 124.523438 241.023438 125.605469 C 240.804688 126.6875 240.503906 127.75 240.125 128.785156 C 239.746094 129.824219 239.292969 130.828125 238.765625 131.796875 C 238.242188 132.769531 237.644531 133.695312 236.980469 134.578125 C 236.316406 135.460938 235.589844 136.289062 234.804688 137.0625 C 233.761719 138.089844 232.625 139.007812 231.402344 139.8125 C 230.175781 140.617188 228.886719 141.296875 227.527344 141.847656 C 226.171875 142.398438 224.773438 142.8125 223.332031 143.089844 C 221.894531 143.367188 220.441406 143.5 218.976562 143.492188 L 115.007812 143.492188 C 114.46875 143.492188 113.9375 143.546875 113.40625 143.652344 C 112.878906 143.753906 112.367188 143.910156 111.867188 144.117188 C 111.371094 144.324219 110.894531 144.578125 110.449219 144.875 C 110 145.175781 109.585938 145.515625 109.203125 145.898438 C 108.824219 146.277344 108.484375 146.691406 108.183594 147.140625 C 107.882812 147.589844 107.632812 148.0625 107.425781 148.558594 C 107.21875 149.058594 107.0625 149.570312 106.957031 150.101562 C 106.851562 150.628906 106.800781 151.160156 106.800781 151.699219 C 106.800781 152.238281 106.851562 152.773438 106.957031 153.300781 C 107.0625 153.832031 107.21875 154.34375 107.425781 154.84375 C 107.632812 155.339844 107.882812 155.8125 108.183594 156.261719 C 108.484375 156.710938 108.824219 157.125 109.203125 157.503906 C 109.585938 157.886719 110 158.226562 110.449219 158.527344 C 110.894531 158.824219 111.371094 159.078125 111.867188 159.285156 C 112.367188 159.492188 112.878906 159.644531 113.40625 159.75 C 113.9375 159.855469 114.46875 159.910156 115.007812 159.910156 L 219.070312 159.910156 C 220.175781 159.90625 221.273438 159.988281 222.367188 160.148438 C 223.460938 160.308594 224.535156 160.546875 225.59375 160.867188 C 226.648438 161.1875 227.675781 161.585938 228.675781 162.058594 C 229.671875 162.527344 230.632812 163.070312 231.550781 163.6875 C 232.464844 164.300781 233.335938 164.980469 234.152344 165.722656 C 234.96875 166.464844 235.726562 167.261719 236.425781 168.117188 C 237.125 168.972656 237.757812 169.875 238.324219 170.824219 C 238.886719 171.773438 239.382812 172.757812 239.800781 173.777344 C 240.21875 174.800781 240.5625 175.847656 240.828125 176.917969 C 241.089844 177.992188 241.273438 179.078125 241.378906 180.175781 C 241.484375 181.277344 241.503906 182.375 241.445312 183.480469 C 241.386719 184.582031 241.246094 185.675781 241.023438 186.757812 C 240.804688 187.839844 240.503906 188.898438 240.125 189.9375 C 239.746094 190.972656 239.292969 191.976562 238.765625 192.949219 C 238.242188 193.917969 237.644531 194.84375 236.980469 195.726562 C 236.316406 196.609375 235.589844 197.4375 234.804688 198.214844 C 233.761719 199.242188 232.625 200.15625 231.402344 200.960938 C 230.175781 201.769531 228.886719 202.445312 227.527344 202.996094 C 226.171875 203.550781 224.773438 203.964844 223.332031 204.238281 C 221.894531 204.515625 220.441406 204.652344 218.976562 204.640625 Z M 77.539062 112.90625 C 75.371094 119.144531 73.734375 125.519531 72.636719 132.03125 C 71.535156 138.542969 70.984375 145.101562 70.984375 151.707031 C 70.984375 158.3125 71.535156 164.871094 72.636719 171.382812 C 73.734375 177.898438 75.371094 184.273438 77.539062 190.511719 L 218.941406 190.511719 C 220.039062 190.519531 221.101562 190.316406 222.121094 189.910156 C 223.140625 189.503906 224.046875 188.917969 224.839844 188.15625 C 225.425781 187.585938 225.914062 186.945312 226.308594 186.226562 C 226.703125 185.507812 226.984375 184.75 227.148438 183.949219 C 227.316406 183.148438 227.363281 182.339844 227.289062 181.523438 C 227.210938 180.710938 227.019531 179.925781 226.710938 179.167969 C 226.402344 178.410156 225.988281 177.714844 225.46875 177.082031 C 224.949219 176.445312 224.351562 175.902344 223.671875 175.449219 C 222.992188 174.996094 222.257812 174.648438 221.476562 174.414062 C 220.691406 174.179688 219.890625 174.0625 219.070312 174.066406 L 114.945312 174.066406 C 114.214844 174.066406 113.484375 174.03125 112.753906 173.960938 C 112.027344 173.886719 111.304688 173.78125 110.585938 173.636719 C 109.867188 173.496094 109.15625 173.316406 108.457031 173.105469 C 107.753906 172.890625 107.066406 172.644531 106.390625 172.367188 C 105.714844 172.085938 105.050781 171.773438 104.40625 171.425781 C 103.761719 171.082031 103.132812 170.707031 102.523438 170.300781 C 101.914062 169.890625 101.328125 169.457031 100.761719 168.992188 C 100.195312 168.527344 99.652344 168.035156 99.136719 167.519531 C 98.617188 167 98.125 166.457031 97.664062 165.894531 C 97.199219 165.328125 96.761719 164.738281 96.355469 164.128906 C 95.949219 163.519531 95.574219 162.894531 95.226562 162.25 C 94.882812 161.601562 94.570312 160.941406 94.289062 160.265625 C 94.007812 159.589844 93.761719 158.898438 93.550781 158.199219 C 93.335938 157.496094 93.160156 156.789062 93.015625 156.070312 C 92.875 155.351562 92.765625 154.628906 92.695312 153.898438 C 92.621094 153.171875 92.585938 152.441406 92.585938 151.707031 C 92.585938 150.976562 92.621094 150.246094 92.695312 149.515625 C 92.765625 148.789062 92.875 148.0625 93.015625 147.34375 C 93.160156 146.628906 93.335938 145.917969 93.550781 145.21875 C 93.761719 144.515625 94.007812 143.828125 94.289062 143.152344 C 94.570312 142.472656 94.882812 141.8125 95.226562 141.167969 C 95.574219 140.523438 95.949219 139.894531 96.355469 139.285156 C 96.761719 138.675781 97.199219 138.089844 97.664062 137.523438 C 98.125 136.957031 98.617188 136.414062 99.136719 135.898438 C 99.652344 135.378906 100.195312 134.886719 100.761719 134.421875 C 101.328125 133.957031 101.914062 133.523438 102.523438 133.117188 C 103.132812 132.710938 103.761719 132.332031 104.40625 131.988281 C 105.050781 131.644531 105.714844 131.332031 106.390625 131.050781 C 107.066406 130.769531 107.753906 130.523438 108.457031 130.3125 C 109.15625 130.097656 109.867188 129.921875 110.585938 129.777344 C 111.304688 129.632812 112.027344 129.527344 112.753906 129.457031 C 113.484375 129.382812 114.214844 129.347656 114.945312 129.347656 L 218.914062 129.347656 C 220.015625 129.355469 221.074219 129.152344 222.09375 128.742188 C 223.113281 128.335938 224.019531 127.75 224.8125 126.988281 C 225.394531 126.417969 225.886719 125.773438 226.277344 125.054688 C 226.671875 124.339844 226.949219 123.582031 227.117188 122.78125 C 227.28125 121.980469 227.328125 121.171875 227.253906 120.359375 C 227.179688 119.542969 226.984375 118.757812 226.675781 118.003906 C 226.367188 117.246094 225.953125 116.550781 225.433594 115.917969 C 224.917969 115.285156 224.320312 114.742188 223.640625 114.289062 C 222.960938 113.832031 222.226562 113.488281 221.445312 113.253906 C 220.664062 113.015625 219.863281 112.902344 219.042969 112.90625 Z M 77.539062 112.90625"/><g><g><g><path d="M 24.5625 -19.875 L 29.796875 -19.875 L 24.046875 0 L 17.75 0 L 14.890625 -12.875 L 11.3125 0 L 5.015625 0 L 0.0625 -19.875 L 5.6875 -19.875 L 8.484375 -7.703125 L 11.84375 -19.875 L 18.53125 -19.875 L 21.203125 -7.640625 Z M 24.5625 -19.875" transform="translate(10.332 344.02)"/></g></g></g><g><g><g><path d="M 1.6875 0 L 1.6875 -19.875 L 7.28125 -19.875 L 7.28125 0 Z M 1.6875 0" transform="translate(46.644 344.02)"/></g></g></g><g><g><g><path d="M 1.6875 0 L 1.6875 -19.875 L 7.28125 -19.875 L 7.28125 -4.875 L 15.5625 -4.875 L 15.234375 0 Z M 1.6875 0" transform="translate(62.603 344.02)"/></g></g></g><g><g><g><path d="M 1.6875 0 L 1.6875 -19.875 L 7.28125 -19.875 L 7.28125 -4.875 L 15.5625 -4.875 L 15.234375 0 Z M 1.6875 0" transform="translate(85.057 344.02)"/></g></g></g><g><g><g><path d="M 1.6875 0 L 1.6875 -19.875 L 7.28125 -19.875 L 7.28125 0 Z M 1.6875 0" transform="translate(107.511 344.02)"/></g></g></g><g><g><g><path d="M -1.09375 0 L 7.671875 -19.875 L 12.3125 -19.875 L 20.78125 0 L 15.125 0 L 13.71875 -3.5625 L 6.015625 -3.5625 L 4.5625 0 Z M 7.921875 -8.171875 L 11.875 -8.171875 L 9.9375 -13.046875 Z M 7.921875 -8.171875" transform="translate(123.47 344.02)"/></g></g></g><g><g><g><path d="M 1.734375 0 L 2.328125 -19.875 L 6.890625 -19.875 L 13.546875 -6.921875 L 20.109375 -19.875 L 24.671875 -19.875 L 25.09375 0 L 19.6875 0 L 19.515625 -8.3125 L 15.265625 0 L 11.34375 0 L 7.109375 -8.171875 L 6.859375 0 Z M 1.734375 0" transform="translate(150.263 344.02)"/></g></g></g><g><g><g><path d="M 1.6875 0 L 1.6875 -19.875 L 7.28125 -19.875 L 7.28125 -11.625 L 14.359375 -19.875 L 21.03125 -19.875 L 12.34375 -9.90625 C 12.789062 -9.664062 13.191406 -9.359375 13.546875 -8.984375 C 13.898438 -8.609375 14.207031 -8.195312 14.46875 -7.75 L 15.5625 -5.875 C 16.050781 -5 16.789062 -4.5625 17.78125 -4.5625 C 18.582031 -4.5625 19.300781 -4.757812 19.9375 -5.15625 L 21.21875 -0.84375 C 20.769531 -0.488281 20.171875 -0.203125 19.421875 0.015625 C 18.679688 0.234375 17.929688 0.34375 17.171875 0.34375 C 14.347656 0.34375 12.328125 -0.691406 11.109375 -2.765625 L 9.296875 -5.875 C 8.992188 -6.382812 8.703125 -6.765625 8.421875 -7.015625 C 8.148438 -7.265625 7.769531 -7.4375 7.28125 -7.53125 L 7.28125 0 Z M 1.6875 0" transform="translate(198.447 344.02)"/></g></g></g><g><g><g><path d="M 1.6875 0 L 1.6875 -19.875 L 9.65625 -19.875 C 12.269531 -19.875 14.273438 -19.390625 15.671875 -18.421875 C 17.078125 -17.453125 17.78125 -16.0625 17.78125 -14.25 C 17.78125 -13.394531 17.601562 -12.609375 17.25 -11.890625 C 16.894531 -11.171875 16.410156 -10.578125 15.796875 -10.109375 C 16.503906 -9.734375 17.085938 -9.191406 17.546875 -8.484375 C 18.003906 -7.773438 18.234375 -6.9375 18.234375 -5.96875 C 18.234375 -4.789062 17.894531 -3.753906 17.21875 -2.859375 C 16.550781 -1.960938 15.613281 -1.257812 14.40625 -0.75 C 13.195312 -0.25 11.789062 0 10.1875 0 Z M 9.90625 -15.375 L 7.171875 -15.375 L 7.171875 -12.265625 L 9.890625 -12.265625 C 10.703125 -12.265625 11.296875 -12.398438 11.671875 -12.671875 C 12.046875 -12.941406 12.234375 -13.328125 12.234375 -13.828125 C 12.234375 -14.859375 11.457031 -15.375 9.90625 -15.375 Z M 7.171875 -4.515625 L 10.390625 -4.515625 C 11.097656 -4.515625 11.65625 -4.648438 12.0625 -4.921875 C 12.476562 -5.203125 12.6875 -5.625 12.6875 -6.1875 C 12.6875 -6.726562 12.507812 -7.117188 12.15625 -7.359375 C 11.800781 -7.609375 11.210938 -7.734375 10.390625 -7.734375 L 7.171875 -7.734375 Z M 7.171875 -4.515625" transform="translate(239.911 344.02)"/></g></g></g><g><g><g><path d="M 19.203125 -5.15625 L 20.5 -0.84375 C 20.050781 -0.488281 19.453125 -0.203125 18.703125 0.015625 C 17.953125 0.234375 17.195312 0.34375 16.4375 0.34375 C 14.957031 0.34375 13.734375 0.0703125 12.765625 -0.46875 C 11.796875 -1.007812 11.015625 -1.773438 10.421875 -2.765625 L 8.5625 -5.875 C 8.34375 -6.25 8.128906 -6.53125 7.921875 -6.71875 C 7.710938 -6.90625 7.460938 -7.023438 7.171875 -7.078125 L 7.171875 0 L 1.6875 0 L 1.6875 -19.875 L 8.40625 -19.875 C 11.457031 -19.875 13.71875 -19.296875 15.1875 -18.140625 C 16.65625 -16.984375 17.390625 -15.378906 17.390625 -13.328125 C 17.390625 -11.867188 16.96875 -10.660156 16.125 -9.703125 C 15.289062 -8.742188 14.179688 -8.066406 12.796875 -7.671875 C 13.503906 -7.453125 14.0625 -7.03125 14.46875 -6.40625 L 14.984375 -5.65625 C 15.453125 -4.925781 16.171875 -4.5625 17.140625 -4.5625 C 17.492188 -4.5625 17.84375 -4.601562 18.1875 -4.6875 C 18.53125 -4.769531 18.867188 -4.925781 19.203125 -5.15625 Z M 8.34375 -15.375 L 7.171875 -15.375 L 7.171875 -11.421875 L 8.59375 -11.421875 C 9.8125 -11.421875 10.65625 -11.582031 11.125 -11.90625 C 11.601562 -12.238281 11.84375 -12.75 11.84375 -13.4375 C 11.84375 -14.1875 11.519531 -14.695312 10.875 -14.96875 C 10.226562 -15.238281 9.382812 -15.375 8.34375 -15.375 Z M 8.34375 -15.375" transform="translate(265.445 344.02)"/></g></g></g><g><g><g><path d="M 18.453125 -19.875 L 11.78125 -8.875 L 11.78125 0 L 6.1875 0 L 6.1875 -8.59375 L -0.8125 -19.875 L 5.4375 -19.875 L 9.1875 -13.6875 L 12.625 -19.875 Z M 18.453125 -19.875" transform="translate(291.65 344.02)"/></g></g></g><g><g><g><path d="M -1.09375 0 L 7.671875 -19.875 L 12.3125 -19.875 L 20.78125 0 L 15.125 0 L 13.71875 -3.5625 L 6.015625 -3.5625 L 4.5625 0 Z M 7.921875 -8.171875 L 11.875 -8.171875 L 9.9375 -13.046875 Z M 7.921875 -8.171875" transform="translate(316.456 344.02)"/></g></g></g><g><g><g><path d="M 14.359375 -19.875 L 19.734375 -19.875 L 19.734375 0 L 14.75 0 L 7.0625 -10.703125 L 7.0625 0 L 1.6875 0 L 1.6875 -19.875 L 6.65625 -19.875 L 14.359375 -9.21875 Z M 14.359375 -19.875" transform="translate(343.25 344.02)"/></g></g></g></svg>