<svg xmlns="http://www.w3.org/2000/svg" xmlns:xlink="http://www.w3.org/1999/xlink" width="375" viewBox="0 0 375 375" height="375" version="1.0"><defs><g id="b"><path d="M 17.546875 -14.203125 L 21.28125 -14.203125 L 17.1875 0 L 12.6875 0 L 10.640625 -9.203125 L 8.078125 0 L 3.578125 0 L 0.046875 -14.203125 L 4.0625 -14.203125 L 6.0625 -5.5 L 8.453125 -14.203125 L 13.234375 -14.203125 L 15.140625 -5.453125 Z M 17.546875 -14.203125"/></g><g id="c"><path d="M 1.203125 0 L 1.203125 -14.203125 L 5.203125 -14.203125 L 5.203125 0 Z M 1.203125 0"/></g><g id="d"><path d="M 1.203125 0 L 1.203125 -14.203125 L 5.203125 -14.203125 L 5.203125 -3.484375 L 11.125 -3.484375 L 10.875 0 Z M 1.203125 0"/></g><g id="e"><path d="M -0.78125 0 L 5.484375 -14.203125 L 8.796875 -14.203125 L 14.84375 0 L 10.796875 0 L 9.796875 -2.546875 L 4.296875 -2.546875 L 3.265625 0 Z M 5.65625 -5.84375 L 8.484375 -5.84375 L 7.09375 -9.3125 Z M 5.65625 -5.84375"/></g><g id="f"><path d="M 1.234375 0 L 1.65625 -14.203125 L 4.921875 -14.203125 L 9.6875 -4.9375 L 14.359375 -14.203125 L 17.625 -14.203125 L 17.921875 0 L 14.0625 0 L 13.9375 -5.9375 L 10.90625 0 L 8.09375 0 L 5.078125 -5.84375 L 4.90625 0 Z M 1.234375 0"/></g><g id="h"><path d="M 1.203125 0 L 1.203125 -14.203125 L 5.203125 -14.203125 L 5.203125 -8.296875 L 10.265625 -14.203125 L 15.015625 -14.203125 L 8.8125 -7.078125 C 9.132812 -6.898438 9.421875 -6.675781 9.671875 -6.40625 C 9.929688 -6.144531 10.15625 -5.859375 10.34375 -5.546875 L 11.125 -4.203125 C 11.46875 -3.578125 11.992188 -3.265625 12.703125 -3.265625 C 13.273438 -3.265625 13.785156 -3.40625 14.234375 -3.6875 L 15.15625 -0.59375 C 14.84375 -0.34375 14.414062 -0.144531 13.875 0 C 13.34375 0.15625 12.804688 0.234375 12.265625 0.234375 C 10.242188 0.234375 8.800781 -0.503906 7.9375 -1.984375 L 6.640625 -4.203125 C 6.421875 -4.554688 6.210938 -4.820312 6.015625 -5 C 5.816406 -5.1875 5.546875 -5.3125 5.203125 -5.375 L 5.203125 0 Z M 1.203125 0"/></g><g id="i"><path d="M 1.203125 0 L 1.203125 -14.203125 L 6.90625 -14.203125 C 8.769531 -14.203125 10.203125 -13.851562 11.203125 -13.15625 C 12.203125 -12.46875 12.703125 -11.476562 12.703125 -10.1875 C 12.703125 -9.570312 12.570312 -9.003906 12.3125 -8.484375 C 12.0625 -7.972656 11.71875 -7.550781 11.28125 -7.21875 C 11.789062 -6.945312 12.207031 -6.554688 12.53125 -6.046875 C 12.851562 -5.546875 13.015625 -4.953125 13.015625 -4.265625 C 13.015625 -3.421875 12.773438 -2.675781 12.296875 -2.03125 C 11.816406 -1.394531 11.144531 -0.894531 10.28125 -0.53125 C 9.425781 -0.175781 8.425781 0 7.28125 0 Z M 7.078125 -10.984375 L 5.125 -10.984375 L 5.125 -8.765625 L 7.0625 -8.765625 C 7.644531 -8.765625 8.066406 -8.859375 8.328125 -9.046875 C 8.597656 -9.242188 8.734375 -9.519531 8.734375 -9.875 C 8.734375 -10.613281 8.179688 -10.984375 7.078125 -10.984375 Z M 5.125 -3.21875 L 7.421875 -3.21875 C 7.929688 -3.21875 8.332031 -3.316406 8.625 -3.515625 C 8.914062 -3.710938 9.0625 -4.015625 9.0625 -4.421875 C 9.0625 -4.804688 8.929688 -5.082031 8.671875 -5.25 C 8.421875 -5.425781 8.003906 -5.515625 7.421875 -5.515625 L 5.125 -5.515625 Z M 5.125 -3.21875"/></g><g id="j"><path d="M 13.71875 -3.6875 L 14.640625 -0.59375 C 14.316406 -0.34375 13.890625 -0.144531 13.359375 0 C 12.828125 0.15625 12.285156 0.234375 11.734375 0.234375 C 10.679688 0.234375 9.804688 0.0390625 9.109375 -0.34375 C 8.421875 -0.726562 7.863281 -1.273438 7.4375 -1.984375 L 6.125 -4.203125 C 5.957031 -4.460938 5.800781 -4.660156 5.65625 -4.796875 C 5.507812 -4.929688 5.332031 -5.019531 5.125 -5.0625 L 5.125 0 L 1.203125 0 L 1.203125 -14.203125 L 6 -14.203125 C 8.1875 -14.203125 9.800781 -13.785156 10.84375 -12.953125 C 11.894531 -12.128906 12.421875 -10.984375 12.421875 -9.515625 C 12.421875 -8.472656 12.117188 -7.609375 11.515625 -6.921875 C 10.921875 -6.242188 10.128906 -5.765625 9.140625 -5.484375 C 9.648438 -5.316406 10.050781 -5.015625 10.34375 -4.578125 L 10.703125 -4.046875 C 11.035156 -3.523438 11.546875 -3.265625 12.234375 -3.265625 C 12.492188 -3.265625 12.742188 -3.289062 12.984375 -3.34375 C 13.234375 -3.40625 13.476562 -3.519531 13.71875 -3.6875 Z M 5.953125 -10.984375 L 5.125 -10.984375 L 5.125 -8.15625 L 6.140625 -8.15625 C 7.003906 -8.15625 7.601562 -8.269531 7.9375 -8.5 C 8.28125 -8.738281 8.453125 -9.101562 8.453125 -9.59375 C 8.453125 -10.132812 8.222656 -10.5 7.765625 -10.6875 C 7.304688 -10.882812 6.703125 -10.984375 5.953125 -10.984375 Z M 5.953125 -10.984375"/></g><g id="k"><path d="M 13.1875 -14.203125 L 8.421875 -6.34375 L 8.421875 0 L 4.421875 0 L 4.421875 -6.140625 L -0.578125 -14.203125 L 3.875 -14.203125 L 6.5625 -9.78125 L 9.015625 -14.203125 Z M 13.1875 -14.203125"/></g><g id="l"><path d="M 10.265625 -14.203125 L 14.09375 -14.203125 L 14.09375 0 L 10.546875 0 L 5.046875 -7.640625 L 5.046875 0 L 1.203125 0 L 1.203125 -14.203125 L 4.765625 -14.203125 L 10.265625 -6.578125 Z M 10.265625 -14.203125"/></g><clipPath id="a"><path d="M 125.605469 98.429688 L 249 98.429688 L 249 214.679688 L 125.605469 214.679688 Z M 125.605469 98.429688"/></clipPath></defs><g clip-path="url(#a)"><path d="M 242.453125 156.914062 C 244.121094 154.460938 245.46875 151.847656 246.496094 149.066406 C 248.078125 144.824219 248.871094 140.4375 248.875 135.910156 C 248.890625 130.886719 247.914062 126.0625 245.9375 121.441406 C 245.007812 119.238281 243.875 117.144531 242.542969 115.160156 C 241.210938 113.171875 239.699219 111.332031 238.011719 109.636719 C 236.324219 107.945312 234.492188 106.425781 232.511719 105.082031 C 230.53125 103.742188 228.441406 102.601562 226.242188 101.660156 C 221.59375 99.660156 216.738281 98.679688 211.675781 98.710938 L 125.144531 98.710938 L 133.988281 108.28125 C 159.1875 135.550781 159.1875 178.273438 133.988281 205.542969 L 125.144531 215.109375 L 211.675781 215.109375 C 216.738281 215.144531 221.59375 214.160156 226.246094 212.164062 C 228.445312 211.222656 230.535156 210.082031 232.511719 208.742188 C 234.492188 207.398438 236.324219 205.878906 238.011719 204.183594 C 239.699219 202.488281 241.210938 200.648438 242.542969 198.664062 C 243.875 196.679688 245.007812 194.585938 245.9375 192.382812 C 247.914062 187.761719 248.890625 182.9375 248.875 177.910156 C 248.867188 173.382812 248.074219 169 246.496094 164.757812 C 245.46875 161.976562 244.121094 159.363281 242.453125 156.914062 Z M 221.703125 112.113281 C 223.242188 112.769531 224.703125 113.5625 226.085938 114.5 C 227.472656 115.4375 228.753906 116.496094 229.929688 117.679688 C 231.109375 118.863281 232.164062 120.152344 233.09375 121.539062 C 234.023438 122.925781 234.8125 124.390625 235.460938 125.933594 C 236.820312 129.121094 237.492188 132.445312 237.476562 135.910156 C 237.46875 139.078125 236.910156 142.144531 235.804688 145.113281 C 235.503906 145.882812 235.203125 146.636719 234.835938 147.371094 C 231.234375 143.402344 225.644531 137.949219 217.601562 132.011719 C 208.515625 125.300781 198.101562 119.269531 186.640625 114.09375 C 183.5625 112.703125 180.40625 111.375 177.175781 110.109375 L 211.675781 110.109375 C 215.15625 110.082031 218.5 110.75 221.703125 112.113281 Z M 152.371094 113.8125 C 180.230469 121.695312 198.941406 132.496094 210.242188 140.746094 C 219.207031 147.292969 224.835938 153.15625 227.808594 156.648438 L 227.570312 156.914062 L 227.683594 157.039062 C 212.382812 174.285156 189.859375 185.792969 173.132812 192.550781 C 165.492188 195.632812 158.375 198.015625 152.515625 199.78125 C 156.417969 193.3125 159.378906 186.441406 161.402344 179.160156 C 163.421875 171.882812 164.429688 164.46875 164.421875 156.914062 C 164.429688 149.3125 163.410156 141.851562 161.363281 134.535156 C 159.316406 127.214844 156.320312 120.308594 152.371094 113.8125 Z M 235.472656 187.890625 C 234.152344 191.007812 232.296875 193.761719 229.910156 196.15625 C 227.523438 198.53125 224.785156 200.382812 221.695312 201.710938 C 218.492188 203.074219 215.148438 203.742188 211.667969 203.710938 L 175.910156 203.710938 C 176.332031 203.546875 176.753906 203.378906 177.179688 203.203125 C 189.34375 198.308594 200.398438 192.703125 210.035156 186.515625 C 219.671875 180.324219 227.984375 173.507812 234.722656 166.238281 C 235.125 167.042969 235.484375 167.867188 235.800781 168.710938 C 236.90625 171.679688 237.464844 174.746094 237.472656 177.910156 C 237.488281 181.375 236.816406 184.703125 235.460938 187.890625 Z M 235.472656 187.890625"/></g><g><use x="60.977" y="246.643" xmlns:xlink="http://www.w3.org/1999/xlink" xlink:href="#b" xlink:type="simple" xlink:actuate="onLoad" xlink:show="embed"/></g><g><use x="86.908" y="246.643" xmlns:xlink="http://www.w3.org/1999/xlink" xlink:href="#c" xlink:type="simple" xlink:actuate="onLoad" xlink:show="embed"/></g><g><use x="98.306" y="246.643" xmlns:xlink="http://www.w3.org/1999/xlink" xlink:href="#d" xlink:type="simple" xlink:actuate="onLoad" xlink:show="embed"/></g><g><use x="114.342" y="246.643" xmlns:xlink="http://www.w3.org/1999/xlink" xlink:href="#d" xlink:type="simple" xlink:actuate="onLoad" xlink:show="embed"/></g><g><use x="130.377" y="246.643" xmlns:xlink="http://www.w3.org/1999/xlink" xlink:href="#c" xlink:type="simple" xlink:actuate="onLoad" xlink:show="embed"/></g><g><use x="141.775" y="246.643" xmlns:xlink="http://www.w3.org/1999/xlink" xlink:href="#e" xlink:type="simple" xlink:actuate="onLoad" xlink:show="embed"/></g><g><use x="160.91" y="246.643" xmlns:xlink="http://www.w3.org/1999/xlink" xlink:href="#f" xlink:type="simple" xlink:actuate="onLoad" xlink:show="embed"/></g><g><use x="185.082" y="246.643" xmlns:xlink="http://www.w3.org/1999/xlink" xlink:href="#g" xlink:type="simple" xlink:actuate="onLoad" xlink:show="embed"/></g><g><use x="195.32" y="246.643" xmlns:xlink="http://www.w3.org/1999/xlink" xlink:href="#h" xlink:type="simple" xlink:actuate="onLoad" xlink:show="embed"/></g><g><use x="214.694" y="246.643" xmlns:xlink="http://www.w3.org/1999/xlink" xlink:href="#g" xlink:type="simple" xlink:actuate="onLoad" xlink:show="embed"/></g><g><use x="224.932" y="246.643" xmlns:xlink="http://www.w3.org/1999/xlink" xlink:href="#i" xlink:type="simple" xlink:actuate="onLoad" xlink:show="embed"/></g><g><use x="243.167" y="246.643" xmlns:xlink="http://www.w3.org/1999/xlink" xlink:href="#j" xlink:type="simple" xlink:actuate="onLoad" xlink:show="embed"/></g><g><use x="261.882" y="246.643" xmlns:xlink="http://www.w3.org/1999/xlink" xlink:href="#k" xlink:type="simple" xlink:actuate="onLoad" xlink:show="embed"/></g><g><use x="279.597" y="246.643" xmlns:xlink="http://www.w3.org/1999/xlink" xlink:href="#e" xlink:type="simple" xlink:actuate="onLoad" xlink:show="embed"/></g><g><use x="298.732" y="246.643" xmlns:xlink="http://www.w3.org/1999/xlink" xlink:href="#l" xlink:type="simple" xlink:actuate="onLoad" xlink:show="embed"/></g></svg>